<svg class="animated" id="freepik_stories-fire-hair" xmlns="http://www.w3.org/2000/svg" viewBox="0 0 500 500" version="1.1" xmlns:xlink="http://www.w3.org/1999/xlink" xmlns:svgjs="http://svgjs.com/svgjs"><style>svg#freepik_stories-fire-hair:not(.animated) .animable {opacity: 0;}svg#freepik_stories-fire-hair.animated #freepik--background-simple--inject-558 {animation: 1s 1 forwards cubic-bezier(.36,-0.01,.5,1.38) slideDown,1.5s Infinite  linear floating;animation-delay: 0s,1s;}svg#freepik_stories-fire-hair.animated #freepik--Character--inject-558 {animation: 1.5s Infinite  linear floating;animation-delay: 0s;}svg#freepik_stories-fire-hair.animated #freepik--Flames--inject-558 {animation: 1.5s Infinite  linear floating;animation-delay: 0s;}            @keyframes slideDown {                0% {                    opacity: 0;                    transform: translateY(-30px);                }                100% {                    opacity: 1;                    transform: translateY(0);                }            }                    @keyframes floating {                0% {                    opacity: 1;                    transform: translateY(0px);                }                50% {                    transform: translateY(-10px);                }                100% {                    opacity: 1;                    transform: translateY(0px);                }            }        </style><g id="freepik--background-simple--inject-558" class="animable" style="transform-origin: 264.677px 242.909px;"><path d="M392.59,133.84C353,92.33,343.41,52.19,276.93,37.35S170.81,41,136.93,84.79s-56.77,91.06-74.1,138.09C45.73,269.3,41.57,308.28,79,335.61c-1.41-13.69,3.57-18.27,3.57-18.27s-.89,21.14,8.8,21.14,8.53-5.29.86-20.48-6.51-26.43.71-33.7l7.23-7.27s-5.48,15.2-1.13,27.09,5.31,5.29,20.07,16.52,21.27,21.14,18.11,30.39l-3.15,9.25s13.81.66,14.95-9.91-2.88-13.87-5.32-21.8,15.53,9.25,19.08,23.78c2.88,11.81-3.76,21.88-8.71,28.42,1.07,1.44,2.12,3,3.14,4.65C171.54,408.83,240,465.9,311.58,451.1c-1.09-.9-2.14-1.83-3.11-2.78l-18-5.81s4.73-1.14,11.49-3.05a11.34,11.34,0,0,1-1-4c-.29-8.31,20.2-24.29,27.39-28.13s13.67-5.75,16-15.35-3-21.3-3-21.3,12.87,13.63,15.1,21.3,13.14,7,17.91,0a11.5,11.5,0,0,0,1-1.86c-.74-12.72-5-20.62-3.56-29.46,1.71-10.23,8.9-14.07,8.9-14.07s-3.2,15.34,1.09,19.82,12.87-1.92,13.3-12.15-4.37-17.9-10-20.46a46.39,46.39,0,0,0-8.82-3.2s10.5-6.39,23.45,5.12,9.85,24.3,7,31.33-13.24,10.87-12.26,17.9,12,4.48,16.89-6.39a68,68,0,0,0,5.41-22.38l10.9,12.46.9-1.07c-1.7-4.6-4.07-12.65-3.72-21,.53-12.79,7.75-17.26,11.91-24.94s3.39-19.82,3.39-19.82,7.43,5.76,4.76,23.66-10.47,21.1-8.23,28.77a18.09,18.09,0,0,0,.77,2.14A243.7,243.7,0,0,0,468.39,303C507,209.68,432.19,175.36,392.59,133.84Z" style="fill: #0DCC24; transform-origin: 264.677px 242.909px;" id="eljzv0vvdta4t" class="animable"></path><g id="elp62sbh5dloh"><path d="M392.59,133.84C353,92.33,343.41,52.19,276.93,37.35S170.81,41,136.93,84.79s-56.77,91.06-74.1,138.09C45.73,269.3,41.57,308.28,79,335.61c-1.41-13.69,3.57-18.27,3.57-18.27s-.89,21.14,8.8,21.14,8.53-5.29.86-20.48-6.51-26.43.71-33.7l7.23-7.27s-5.48,15.2-1.13,27.09,5.31,5.29,20.07,16.52,21.27,21.14,18.11,30.39l-3.15,9.25s13.81.66,14.95-9.91-2.88-13.87-5.32-21.8,15.53,9.25,19.08,23.78c2.88,11.81-3.76,21.88-8.71,28.42,1.07,1.44,2.12,3,3.14,4.65C171.54,408.83,240,465.9,311.58,451.1c-1.09-.9-2.14-1.83-3.11-2.78l-18-5.81s4.73-1.14,11.49-3.05a11.34,11.34,0,0,1-1-4c-.29-8.31,20.2-24.29,27.39-28.13s13.67-5.75,16-15.35-3-21.3-3-21.3,12.87,13.63,15.1,21.3,13.14,7,17.91,0a11.5,11.5,0,0,0,1-1.86c-.74-12.72-5-20.62-3.56-29.46,1.71-10.23,8.9-14.07,8.9-14.07s-3.2,15.34,1.09,19.82,12.87-1.92,13.3-12.15-4.37-17.9-10-20.46a46.39,46.39,0,0,0-8.82-3.2s10.5-6.39,23.45,5.12,9.85,24.3,7,31.33-13.24,10.87-12.26,17.9,12,4.48,16.89-6.39a68,68,0,0,0,5.41-22.38l10.9,12.46.9-1.07c-1.7-4.6-4.07-12.65-3.72-21,.53-12.79,7.75-17.26,11.91-24.94s3.39-19.82,3.39-19.82,7.43,5.76,4.76,23.66-10.47,21.1-8.23,28.77a18.09,18.09,0,0,0,.77,2.14A243.7,243.7,0,0,0,468.39,303C507,209.68,432.19,175.36,392.59,133.84Z" style="fill: rgb(255, 255, 255); opacity: 0.8; transform-origin: 264.677px 242.909px;" class="animable" id="elsqvk3cpm0qj"></path></g></g><g id="freepik--Character--inject-558" class="animable" style="transform-origin: 257.322px 244.31px;"><path d="M194.36,291.65s.25,5.1-6,11.2-7.54,13.84-2.56,18.16,11.54,2.3,11.54,2.3-4.69-.92-4.56-7,5.95-7.15,5.95-7.15-2.76,10.36,6.57,14.91,19.84-12.85,36.41-8.59,12.45,10.81,33.72,15.65,38.83-3.38,43.81-15.66,15-24.28,24.7-19.7,6.93,14.25,17.49,11.75,9.7-13,9.7-13-3.44,8.63-10.18,1.84-9.82-15.08-18.43-18.92-25.14,6.81-25.14,6.81,2.73-9,16.21-12.7,21.63,4.86,28.82-9,2.38-26.63-.45-29.83-4.6-5-4.6-5,1.26,8.53-2.45,12.74-12.38,3.08-14-7.17,7.77-24.32,17.62-27.53a15.78,15.78,0,0,1,16.22,3.9s-1.27-8.54-8.44-12-12.62-2.69-18.13.75-13.25,9.46-16.79,5.55-7.05-8.84,2.18-16.82,18.58-4.79,24.9-12.25.42-19.62.42-19.62a12.17,12.17,0,0,1-11,6.54,18.52,18.52,0,0,1-17.76-16.52c-1.22-10.22,5.08-17,11.61-17.34s7.08,7.48,5.53,12.14-7.4,7.41-7.4,7.41,9.81-1.18,13.56-7.42,6.84-14.55-3.39-27.62-25.66-19.29-33.4-30.2-4.6-21.92,9.57-23.89,13,4.07,25.19,8.1,18-9.56,15.53-14.43-8.17-7.54-8.17-7.54,4.59,5.32-2,7.68-14.45-2.11-19-7.77-18.07-18.9-35.63-11.35S287.18,53,288.54,57.44s9.95,9,1.48,15S274.71,77,274.53,68.56s9.24-8.66,9.24-8.66-9-3.86-23.23,2.17-14.71,10.07-14.71,10.07,4.13-6.56,10.56-2.5,4.71,16.85,1.29,24.12-14,10.11-18.55,3.77S247.47,80,247.47,80s-8.67-.8-18.42,14.27.68,19-.25,28.44-15.79,10-24.11,9.24-18.56,3.77-22.32,10-1,10.79-1,10.79,3.84-10,11.44-9.9,7.36,11.56.38,16.28S169.86,168.09,163.4,182s2.29,27.89,8.74,31.62a16.67,16.67,0,0,0,12.64,1.67s-1.91,4.65-9.91,5.92-14.37-5.83-14.62-10.93c0,0-3.55,13.37,9.33,20.82s14.49.42,18.81,1.32,6.87,5.43,4.54,8-14.85-.1-20.5,10.1,0,14.91,5,20.59,5.94,9.79.83,11.56-8-.08-8.43,4.64,6.76,5.77,6.76,5.77-6.43-4.4.48-5.73,5,3,11.16,3.63,8-3.3,8-3.3Z" style="fill: #0DCC24; transform-origin: 267.276px 181.665px;" id="eleijuhzwmrca" class="animable"></path><g id="el116y4p9c4l1d"><path d="M204.51,219.67s-12.79-10-9.59-20.54,16.89-11.87,21.46-16.44-2.74-18.26,2.28-28.76,26-3.2,32.42-14.61,0-14.61,5.48-21.92,8.67-5.48,20.54-5.93,15.07-6.4,13.24-12.33.91-12.33,4.11-14.15,5.48-2.29,5.48-3.66-5,7.31-2.74,13.7,10.5,10.5,11,25.57S298.56,138,294,148a13.86,13.86,0,0,0,3.2,16.44s-6.85-6.39-14.61,2.28-3.2,23.29,4.11,22.83,12.78-5.94,12.78-5.94-11,11.42-8.22,17.35,10-.32,16.64,4.31,10.76,12.5,5.15,18.84-10.13,5.5-10.13,5.5,6.34-18.64-6.2-15.14-9.57,19.37-.89,23,13.7,3.65,11.41,10-16.89,7.31-16.43,11.87,14.61-2.28,16.43,10.5-12.32,13.7-13.24,19.18,10.05,6.39,14.61,3.65c0,0,2.29,5.94-10.5,9.59s-11-5.48-20.54-4.11-5.48,13.7-13.24,15.07-19.18-3.65-19.18-3.65S192.64,303.68,204.51,219.67Z" style="fill: rgb(255, 255, 255); opacity: 0.41; transform-origin: 255.045px 197.321px;" class="animable" id="elr2mjlz1k2gb"></path></g><path d="M281,269.14s3.31.25,4.84-5.6,4.83-8.4,15-6.61,16.29-2,17.56-5.6a17.81,17.81,0,0,0,1.27-5.09s.51,7.12-3.31,12.72-20.1.51-22.9,5.6,0,9.16-3.31,12.47-8.9,4.83-8.9,4.83a9.75,9.75,0,0,0,7.38,3.57c5.09.25,9.67-3.06,9.67-3.06s-6.37,7.13-14.76,9.67-12.73-7.63-16.54-4.83.51,5.34-2.8,9.41a11.36,11.36,0,0,1-8.15,4.07s-1-15.26,1.53-20.61,10.43-8.4,13.49-8.9S281,269.14,281,269.14Z" style="fill: rgb(255, 255, 255); transform-origin: 287.774px 273.465px;" id="elhomx0gqwbev" class="animable"></path><path d="M213,211.16s-8.9,2.87-14.07,10.91-4.88,19.81-6.32,24.12-6.6,12.06-5.74,22.11,8.61,30.15,9.76,33.88a11.81,11.81,0,0,0,8.62,7.75,31.76,31.76,0,0,0,5.74.86,73.36,73.36,0,0,1,3.44,12.92,36.36,36.36,0,0,1,.29,9.77s-13.49,5.16-18.66,6.31-20.68-1.43-30.44,9.77-8.32,29.57-9.19,40.19-.86,13.5-.86,13.5,14.93-1.44,27.57,5.74a221.59,221.59,0,0,1,20.38,12.92S218.41,407,250.86,404.4s42.49,1.15,42.49,1.15l44.83-16.31s-4.06-37.58-15.22-49.39c-18-19.07-34.27-8.05-46.62-7.19s-13.71-4.06-15.43-9-1.72-18.66-1.72-25.26a56.53,56.53,0,0,1,2.29-14.07s15.79-18.09,15.79-37-10.33-31.3-24.11-36.47S222.15,207.14,213,211.16Z" style="fill: rgb(255, 255, 255); transform-origin: 246.875px 314.721px;" id="elq35qqy5j8pa" class="animable"></path><path d="M203.48,422.41a.45.45,0,0,1-.29-.1,225.75,225.75,0,0,0-20.34-12.89c-12.34-7-27.12-5.69-27.27-5.67a.52.52,0,0,1-.38-.13.5.5,0,0,1-.17-.37c0-.12,0-3,.87-13.54.15-1.94.23-4.17.32-6.52.38-10.42.9-24.69,9-34,7.67-8.81,18.6-9.24,25.83-9.53a31.38,31.38,0,0,0,4.87-.4c4.66-1,16.35-5.44,18.31-6.18a38.37,38.37,0,0,0-.32-9.34,71.73,71.73,0,0,0-3.31-12.5,38.76,38.76,0,0,1-5.49-.86,12.29,12.29,0,0,1-9-8.09c-.22-.74-.72-2.16-1.36-4-2.7-7.66-7.72-21.91-8.42-30-.67-7.81,2.19-14.14,4.28-18.76.62-1.37,1.16-2.56,1.49-3.55a37.67,37.67,0,0,0,1-5.83c.73-5.4,1.72-12.79,5.33-18.4a29.37,29.37,0,0,1,14.31-11.11c9.26-4,26.61-5.51,40.55-.28,15.54,5.82,24.44,19.28,24.44,36.93,0,18.26-14.67,35.91-15.84,37.28a55.9,55.9,0,0,0-2.24,13.83c0,6.59,0,20.3,1.69,25.1l.14.41c1.63,4.63,3.16,9,14.79,8.2a56.77,56.77,0,0,0,9.1-1.72c10.64-2.58,23.88-5.8,37.92,9.07,11.14,11.8,15.18,48.13,15.35,49.67a.51.51,0,0,1-.33.53L293.52,406a.45.45,0,0,1-.34,0c-.1,0-10.39-3.65-42.28-1.12S204,422.12,203.84,422.26A.51.51,0,0,1,203.48,422.41Zm-44.81-19.77c5.13,0,15.54.73,24.67,5.92a231.23,231.23,0,0,1,20.1,12.7c2.33-2.11,17.65-15,47.38-17.36,30.27-2.41,41,.62,42.53,1.11l44.29-16.11c-.47-4-4.73-37.79-15-48.71-13.64-14.44-26-11.43-37-8.78a57.16,57.16,0,0,1-9.27,1.75c-12.38.86-14.12-4.08-15.8-8.87l-.14-.41c-1.75-5-1.75-18.79-1.75-25.43A57.81,57.81,0,0,1,261,284.23a.54.54,0,0,1,.11-.18c.15-.18,15.66-18.17,15.66-36.71,0-17.21-8.67-30.33-23.79-36-13.7-5.14-30.75-3.69-39.82.28l0,0c-.09,0-8.79,2.91-13.8,10.7-3.49,5.42-4.46,12.69-5.18,18a38.62,38.62,0,0,1-1.08,6c-.35,1-.9,2.24-1.53,3.64-2,4.52-4.84,10.71-4.19,18.27.68,8,5.87,22.69,8.36,29.77.67,1.89,1.15,3.25,1.38,4a11.24,11.24,0,0,0,8.24,7.41,31.39,31.39,0,0,0,5.64.85.51.51,0,0,1,.47.33,75.19,75.19,0,0,1,3.47,13,36.44,36.44,0,0,1,.28,9.91.47.47,0,0,1-.31.39c-.55.22-13.59,5.2-18.73,6.34a32.85,32.85,0,0,1-5,.42c-7.06.28-17.73.7-25.12,9.18-7.85,9-8.37,23.07-8.74,33.34-.09,2.37-.17,4.61-.33,6.57-.65,8.07-.81,11.68-.85,12.92C156.58,402.68,157.48,402.64,158.67,402.64ZM213,211.16h0Z" style="fill: rgb(38, 50, 56); transform-origin: 246.836px 314.708px;" id="elajves5zbetn" class="animable"></path><path d="M281.72,230.22c5-3.12,16.85-2.56,15.75-2.84s-5.25-7.09-11.6-7.94-12.71,3.12-12.71,3.12,1.93-4,3.44-3.71,8.71-3.66,11.2-8.19-1.11-9.64-4.34-11.56-3.39-9.42-3.39-9.42-5.8,4.25-2.21,11.62,6.63,6.81,1.93,10.21c-4.27,3.09-8.79,2.2-16.23,2.9,1.89-2,2.9-6.06,2.9-6.06s-5.64,3.69-7.6,1.52-.43-1.73,3.91-3.69,7-3.91,7.15-8.28-3.46-17.12-3.46-17.12.22,2,.87,7.17-3,8.25-6.3,8,2.18-8,2.18-8a11.51,11.51,0,0,0-6.08,4.56c-2.17,3.47-.44,3.9-3.26,9.55s-5,1.75-12,4.55-6.89,8-6.89,8l1.09,3a19.51,19.51,0,0,1,5-4.13,12.38,12.38,0,0,1,10.42-.65c3.48,1.52.44,6.51.44,6.51s.38-.3,1-.71a2,2,0,0,0-.16.73c7.46-4,11.6,1.42,11.6,1.42l-14.08,9.64s4.42-.57,10.22-1.42,6.35,1.42,6.35,6.81-8,19.84-8,19.84,9.11-4,10,.35a10.54,10.54,0,0,1-1.75,7.87,46.92,46.92,0,0,1,8.28-6.24c4.14-2.27,6.91-.28,11.32-5.1s2.77-16.44,2.77-16.44.15,1.89-2.9,5-10.64,6-10.4,3.28S276.75,233.33,281.72,230.22Z" style="fill: #0DCC24; transform-origin: 266.261px 222.325px;" id="elqh29zblmebd" class="animable"></path><path d="M226.35,185.08l.29-.86A5.77,5.77,0,0,0,226.35,185.08Z" style="fill: #0DCC24; transform-origin: 226.495px 184.65px;" id="elp72hjijowiq" class="animable"></path><path d="M226.35,185.08a42.21,42.21,0,0,0-1.51,6.3A5.59,5.59,0,0,0,226,188,11.74,11.74,0,0,1,226.35,185.08Z" style="fill: #0DCC24; transform-origin: 225.595px 188.23px;" id="elpd6gd6nkufq" class="animable"></path><path d="M254.17,193s-1.7,4.4-3.13,6.05-6.46,1-7.09-2.92,8.34-10,8.34-10-11.67,3.34-14.38,8.34-5,6.88-10.64,5.21c-2.8-.83-3-4.64-2.43-8.27a13.76,13.76,0,0,1-5.29,3.89c-4.79,2.3-3.75-7.5-3.75-7.5s-6.08,6-7.3,8.55-1.87,10.42,2.5,16.89,1.88,9.59,1.88,9.59c2.5-1.25,5.21-8.34,10.64-9.17s8.55,5.63,8.55,5.63a14.78,14.78,0,0,1,.21-6.26c.83-3.75,4-6.46,12.3-8.76S254.17,193,254.17,193Z" style="fill: #0DCC24; transform-origin: 230.882px 204.48px;" id="eldci61cebufl" class="animable"></path><path d="M278.35,200.17c.1.11.2.24.29.36.62.58,1.61,1.49,2.77,2.52A20.65,20.65,0,0,0,278.35,200.17Z" style="fill: #0DCC24; transform-origin: 279.88px 201.61px;" id="ell5fupsokug" class="animable"></path><path d="M200.69,265.72a.5.5,0,0,1-.5-.5c0-.9-.46-1.32-1.15-2a7.23,7.23,0,0,1-2.39-3.59c-1.16-3.87,3.55-7.18,3.75-7.32a.51.51,0,0,1,.7.13.49.49,0,0,1-.13.69s-4.31,3-3.36,6.21a6.28,6.28,0,0,0,2.1,3.14,3.39,3.39,0,0,1,1.48,2.69A.5.5,0,0,1,200.69,265.72Z" style="fill: rgb(38, 50, 56); transform-origin: 198.829px 258.972px;" id="el9xfks3kx3p5" class="animable"></path><path d="M201.74,276.38a.48.48,0,0,1-.26-.07s-1.2-.76-1.89-1.15c-.42-.23-1.73.29-2.88.74l-.47.19a3.35,3.35,0,0,1-3.14-.19.5.5,0,0,1,.58-.81,2.42,2.42,0,0,0,2.2.07l.46-.19c1.62-.64,2.91-1.15,3.74-.68.51.28,1.28.76,1.68,1a8.4,8.4,0,0,1,3.8-1.17,22.84,22.84,0,0,1,3,.51,31.59,31.59,0,0,0,4.63.74,21.17,21.17,0,0,0,6.1-1.11.5.5,0,0,1,.64.31.5.5,0,0,1-.31.63,20.87,20.87,0,0,1-6.47,1.16,31.19,31.19,0,0,1-4.79-.75,20.61,20.61,0,0,0-2.81-.49,8.24,8.24,0,0,0-3.52,1.18A.48.48,0,0,1,201.74,276.38Z" style="fill: rgb(38, 50, 56); transform-origin: 206.44px 275.25px;" id="elx50oikqdvd" class="animable"></path><path d="M201.23,281.52c-3.74,0-4.67-2.34-4.72-2.48a.5.5,0,0,1,.29-.64.49.49,0,0,1,.64.29c.06.15,1.42,3.3,8,1a.49.49,0,0,1,.63.3.5.5,0,0,1-.3.64A14,14,0,0,1,201.23,281.52Z" style="fill: rgb(38, 50, 56); transform-origin: 201.289px 279.943px;" id="elf7j83hjxhqq" class="animable"></path><path d="M218.78,248.59s4.79-3,7.1-3.08a15.38,15.38,0,0,1,8.07,1.21,12.32,12.32,0,0,0,6.45.94S239,249,238.33,249s1.29,1,2.53.77,2.11-.45,2.11-.45-1.13,2.36-2.89,2.81a8,8,0,0,1-3.75-.18,47.81,47.81,0,0,1-8.86-2C222.76,248.39,220.49,247.26,218.78,248.59Z" style="fill: rgb(38, 50, 56); transform-origin: 230.875px 248.836px;" id="el3e0628uc24c" class="animable"></path><path d="M220.35,234.9s2.32,1.6,4.45.89,5.16-2.49,8.54-1.78a29.44,29.44,0,0,1,7.47,3.2s-3.91-5-8.18-6.05-7.47,1.07-9.25,1.6S218.58,233.3,220.35,234.9Z" style="fill: rgb(38, 50, 56); transform-origin: 230.311px 234.041px;" id="elcpfhvifrooj" class="animable"></path><path d="M205.67,236.23a5.81,5.81,0,0,0-4.27-2.67c-3.2-.53-6.22,4.1-6.22,4.1s3.73-2.85,6-2.14S204.6,240,205.67,236.23Z" style="fill: rgb(38, 50, 56); transform-origin: 200.425px 235.699px;" id="elurx879frogd" class="animable"></path><path d="M202.29,250.28a9.35,9.35,0,0,0-4.27-1.42c-2.49-.18-1.6-.8-3.91-.08s-7.12,2.75-7.65,2.57.71,1.25,2.13,1.25-3.2.35-2.49.71a9.22,9.22,0,0,0,4.45.71c2-.18,4.27-1.42,6.4-2.31S200.87,249.57,202.29,250.28Z" style="fill: rgb(38, 50, 56); transform-origin: 194.158px 251.248px;" id="elzis0bmr33in" class="animable"></path><path d="M222.82,245.79a.5.5,0,0,1-.32-.11.5.5,0,0,1-.07-.7,11.61,11.61,0,0,1,3.78-2.83,7.13,7.13,0,0,1,6.32,0,.51.51,0,0,1,.16.69.49.49,0,0,1-.69.16,6.07,6.07,0,0,0-5.37,0,10.92,10.92,0,0,0-3.42,2.56A.5.5,0,0,1,222.82,245.79Z" style="fill: rgb(38, 50, 56); transform-origin: 227.541px 243.601px;" id="el4ivtwb3h9ad" class="animable"></path><path d="M200.7,249.43a.5.5,0,0,1-.47-.34c-.22-.63-1-2.32-2-2.52a.51.51,0,0,1-.4-.59.5.5,0,0,1,.59-.39c1.73.34,2.67,2.88,2.77,3.17a.49.49,0,0,1-.3.64A.51.51,0,0,1,200.7,249.43Z" style="fill: rgb(38, 50, 56); transform-origin: 199.522px 247.505px;" id="elpalwqzcfwoc" class="animable"></path><path d="M202.5,251.82a.52.52,0,0,1-.38-.17.51.51,0,0,1,.06-.71,10.47,10.47,0,0,0,3.12-6.84c.28-4.35-.8-6-.81-6a.51.51,0,0,1,.12-.7.5.5,0,0,1,.69.11c.06.08,1.3,1.85,1,6.62a11.3,11.3,0,0,1-3.48,7.55A.46.46,0,0,1,202.5,251.82Z" style="fill: rgb(38, 50, 56); transform-origin: 204.175px 244.564px;" id="eln7u80h6gng9" class="animable"></path><path d="M211,310.79a27.48,27.48,0,0,0,7.28-1.48c2.85-1.2,19.18-7.34,22.18-9s7-2.84,9.44-5.54-3,4.49-10.34,10.94a160.62,160.62,0,0,0-17.08,17.83c-1.65,2.25-5.24,6.89-5.24,6.89s-.3-10.49-2.25-14.08A24.7,24.7,0,0,0,211,310.79Z" style="fill: rgb(38, 50, 56); transform-origin: 230.746px 312.308px;" id="el4bljg62r0n8" class="animable"></path><path d="M360.44,457.33a161.32,161.32,0,0,0-3.27-24.5c-3.06-14.5-16.29-36.64-17.56-39.18s-1.53-7.13-1.53-7.13-4.33-1.53-24.17,1.53-27.34,7.82-27.34,7.82-12.47-7.13-37.66-2.29-46.06,21.63-46.06,21.63-11.2-11.2-25.19-17.82-22.14-3.31-22.14-3.31-2.29,10.69-3.05,13-6.88,6.11-9.93,22.4a136.42,136.42,0,0,0-2.15,27.87Z" style="fill: rgb(38, 50, 56); transform-origin: 250.393px 421.744px;" id="ell2zdv2ifgye" class="animable"></path><path d="M360.44,457.83h-220a.51.51,0,0,1-.5-.49,136.37,136.37,0,0,1,2.16-28c2.33-12.4,6.42-17.66,8.62-20.48a8.78,8.78,0,0,0,1.32-2c.75-2.23,3-12.81,3-12.92a.52.52,0,0,1,.3-.36c.34-.14,8.51-3.31,22.54,3.32,12.62,6,23.09,15.74,25,17.6,2.85-2.2,22.67-17,45.93-21.46,23.41-4.49,35.78,1.19,37.74,2.21,1.48-.86,9.29-5,27.27-7.74,19.75-3,24.24-1.56,24.42-1.5a.5.5,0,0,1,.33.44c0,.05.26,4.51,1.47,6.93.19.37.63,1.16,1.25,2.28,3.76,6.72,13.73,24.58,16.36,37a162.83,162.83,0,0,1,3.28,24.57.55.55,0,0,1-.14.37A.5.5,0,0,1,360.44,457.83Zm-219.56-1h219a162.2,162.2,0,0,0-3.23-23.89c-2.59-12.31-12.51-30.07-16.25-36.75-.63-1.14-1.08-1.94-1.27-2.32a22,22,0,0,1-1.55-6.95c-1.29-.25-7-.94-23.63,1.62-19.47,3-27.07,7.7-27.14,7.75a.51.51,0,0,1-.52,0c-.12-.07-12.63-7-37.32-2.23s-45.63,21.36-45.84,21.53a.49.49,0,0,1-.66,0c-.11-.11-11.3-11.21-25.06-17.72C165.12,392,157.38,394,156,394.46c-.37,1.73-2.31,10.65-3,12.76a9.06,9.06,0,0,1-1.48,2.28c-2.15,2.75-6.15,7.88-8.43,20.05A135,135,0,0,0,140.88,456.83Z" style="fill: rgb(38, 50, 56); transform-origin: 250.412px 421.721px;" id="eli5zvruulwm" class="animable"></path><path d="M264.07,267.44s7.17-9.77,13.2-8.33,5.17,8.61,2.3,15.51-8,7.75-12.35,8.32-6.31-1.72-6-3.44" style="fill: rgb(255, 255, 255); transform-origin: 271.484px 270.997px;" id="eltwbvg9ywiep" class="animable"></path><path d="M266,283.53a5.92,5.92,0,0,1-4.33-1.54,3,3,0,0,1-.92-2.57.5.5,0,1,1,1,.16,2,2,0,0,0,.64,1.71c1,1,2.74,1.44,4.83,1.16,3.85-.52,9.11-1.22,11.95-8,2.25-5.39,2.77-9.75,1.47-12.29a4.86,4.86,0,0,0-3.42-2.53c-5.64-1.35-12.62,8-12.69,8.13a.49.49,0,0,1-.7.11.51.51,0,0,1-.11-.7c.3-.41,7.45-10,13.73-8.52a5.9,5.9,0,0,1,4.09,3.05c1.83,3.6.22,9.13-1.45,13.14-3,7.34-8.65,8.08-12.74,8.63A10.4,10.4,0,0,1,266,283.53Z" style="fill: rgb(38, 50, 56); transform-origin: 271.538px 271.017px;" id="elh5cp1baivna" class="animable"></path><path d="M201.63,224.39c-.48-.11-1-.17-1.42-.3a10.29,10.29,0,0,1-4.75-2.74c-2.49-2.69-3.61-6.39-4.05-10.15a38.14,38.14,0,0,1,.1-11.35,20.62,20.62,0,0,1,1.63-5.13,17.61,17.61,0,0,1,3.11-4.34,27.13,27.13,0,0,1,4.23-3.62c.76-.57,1.58-1.09,2.39-1.63s1.65-1,2.56-1.7a26.3,26.3,0,0,0,8.18-9.74,24.14,24.14,0,0,0,2.64-12.28,18.25,18.25,0,0,0-.71-3.1,25.24,25.24,0,0,0-1.07-2.87,28.2,28.2,0,0,0-3-5.28,40.29,40.29,0,0,1,1.89,5.65c.23,1,.43,1.92.58,2.88a15.39,15.39,0,0,1,.24,2.81,18.74,18.74,0,0,1-1.1,5.49,28.14,28.14,0,0,1-2.36,5.14,24.73,24.73,0,0,1-7.55,8c-.73.47-1.61,1-2.48,1.54s-1.74,1.09-2.59,1.7a30.44,30.44,0,0,0-4.91,4.1,21.78,21.78,0,0,0-3.74,5.43c-.25.5-.43,1-.64,1.53a11.47,11.47,0,0,0-.53,1.56c-.14.53-.32,1.06-.42,1.59l-.28,1.6c-.17,1.07-.19,2.13-.28,3.2s0,2.11.06,3.15.14,2.09.3,3.11.31,2,.52,3.05.49,2.05.77,3.06a31.89,31.89,0,0,0,1.19,3,15.84,15.84,0,0,0,3.94,5.12,11.51,11.51,0,0,0,5.93,2.35,12.8,12.8,0,0,0,6-.9,13.55,13.55,0,0,1-3,.18C202.59,224.5,202.11,224.42,201.63,224.39Z" style="fill: rgb(255, 255, 255); transform-origin: 201.772px 187.716px;" id="elp0nxqzpezfd" class="animable"></path><path d="M306.91,229a18.53,18.53,0,0,1-4,.63,32.83,32.83,0,0,1-4.09,0c-1.37-.07-2.73-.23-4.09-.4l-1-.15-1.15-.14a15,15,0,0,0-2.32-.05,14.6,14.6,0,0,0-8.65,3.41,14.33,14.33,0,0,0-4.54,8.12,22.56,22.56,0,0,0-.25,2.29c0,.76,0,1.58-.07,2.13l-.05.93c-.05.31-.14.6-.19.91a8.33,8.33,0,0,1-.56,1.8,14.73,14.73,0,0,1-.87,1.73c-.38.53-.73,1.1-1.15,1.61a20.51,20.51,0,0,1-2.83,2.92,37.33,37.33,0,0,1-6.91,4.73A27.39,27.39,0,0,0,272,256a17.58,17.58,0,0,0,6.13-6.44,11.12,11.12,0,0,0,.89-2.17c.11-.38.23-.76.31-1.15l.13-1.18c.1-.85.14-1.44.19-2.1s.21-1.27.3-1.91a11.51,11.51,0,0,1,3.7-6.34,11.75,11.75,0,0,1,6.79-2.82,15.16,15.16,0,0,1,1.91-.06l1,.07,1.09.1a33.53,33.53,0,0,0,4.37.11,24.25,24.25,0,0,0,8.62-1.65,10.57,10.57,0,0,0,3.7-2.46A7.22,7.22,0,0,0,313,224.1,8.44,8.44,0,0,1,306.91,229Z" style="fill: rgb(255, 255, 255); transform-origin: 288.595px 241.785px;" id="el25qysxliqwf" class="animable"></path><path d="M265.29,230a22.52,22.52,0,0,1,4.39-3.16,24.8,24.8,0,0,1,5-2.1c1.73-.55,3.53-1,5.38-1.44a49.94,49.94,0,0,0,5.71-1.7,11.36,11.36,0,0,0,5.41-4.07l.5-.77c.14-.27.24-.56.36-.83l.34-.85c.1-.28.16-.59.24-.88a7.2,7.2,0,0,0-.24-3.94,9.15,9.15,0,0,0-2-3.06,25.48,25.48,0,0,0-2.25-2.11c-1.48-1.26-2.85-2.43-4.06-3.69a18,18,0,0,1-4.83-9c-.74-3.5-1.2-7.24.7-10a13.81,13.81,0,0,1,4-3.55,46.71,46.71,0,0,0,4.7-3.29c-1.72.86-3.49,1.5-5.26,2.27a14.62,14.62,0,0,0-5.05,3.29,11,11,0,0,0-2.47,5.82l-.12,1.55c0,.52,0,1,0,1.53a27,27,0,0,0,.26,3,20.43,20.43,0,0,0,5.13,11.14,46.28,46.28,0,0,0,4.29,4.08c1.37,1.22,2.65,2.47,3,3.52a2.93,2.93,0,0,1,.12,1.68c0,.17-.07.33-.12.5l-.2.48c-.06.16-.11.33-.18.48l-.28.42a7.85,7.85,0,0,1-3.55,2.7c-3.15,1.43-7,2.16-10.67,3.73a24.91,24.91,0,0,0-5.3,2.85,24,24,0,0,0-4.41,4.06,17,17,0,0,0-4.2,10.77A18.35,18.35,0,0,1,265.29,230Z" style="fill: rgb(255, 255, 255); transform-origin: 276.209px 207.495px;" id="elk4vhlwuvw0b" class="animable"></path><path d="M261.85,146.33a6.48,6.48,0,0,0,.27-1.34,5.28,5.28,0,0,0-.1-1.48,7,7,0,0,0-1.1-2.36l-1.12-1.6a13.86,13.86,0,0,1-2.33-6.65,15.67,15.67,0,0,1,.61-7.23,12.87,12.87,0,0,1,4.5-5.76c2-1.62,4.37-3.14,5.67-5.49-1.69,2.07-4.09,3.13-6.34,4.54a14,14,0,0,0-5.72,5.9,17.71,17.71,0,0,0-1.46,8.23A16.41,16.41,0,0,0,257,141.3l1,1.68a3.46,3.46,0,0,1,.5,1.22,4.09,4.09,0,0,1-.84,2.42,4.8,4.8,0,0,1-2.15,1.72,12,12,0,0,1-3.26.73c-4.84.53-10.49-.13-16.09,2.12a17.45,17.45,0,0,0-6.94,5.4,25,25,0,0,0-4.08,7.47,24.68,24.68,0,0,0-1.37,8.38,16,16,0,0,0,.17,2.17l.17,1.09.29,1.09.15.52.12.39c.08.25.13.53.19.8a12,12,0,0,1,.2,1.73,21.79,21.79,0,0,1-1,7.23,16.2,16.2,0,0,1-3.38,6.4,3.15,3.15,0,0,1-2.68,1.22,3.67,3.67,0,0,1-1.43-.68,2.42,2.42,0,0,1-.91-1.25,4.77,4.77,0,0,1,.56-3.45,14.59,14.59,0,0,1,2.12-3.26,15.07,15.07,0,0,0-2.67,2.95,5.61,5.61,0,0,0-1.14,4,3.56,3.56,0,0,0,1.11,2,5.14,5.14,0,0,0,2,1.2,4,4,0,0,0,2.46-.11,6.38,6.38,0,0,0,2-1.16,18.22,18.22,0,0,0,4.59-7,23.71,23.71,0,0,0,1.7-8.19,16.37,16.37,0,0,0-.11-2.2c-.06-.37-.1-.74-.2-1.12l-.14-.56-.08-.43-.18-.83-.1-.86a14.55,14.55,0,0,1-.07-1.75,20.71,20.71,0,0,1,1.44-7,22.35,22.35,0,0,1,3.52-6.23,13.4,13.4,0,0,1,5.38-4.12,22.81,22.81,0,0,1,7-1.47c2.52-.21,5.16-.19,8-.56a15.94,15.94,0,0,0,4.34-1.19,8.52,8.52,0,0,0,3.73-3.32A10.9,10.9,0,0,0,261.85,146.33Z" style="fill: rgb(255, 255, 255); transform-origin: 241.375px 155.576px;" id="el3n4qeckmsqy" class="animable"></path><path d="M212.58,188.44a18,18,0,0,0-4.3,4.58,13.58,13.58,0,0,0-2.38,6.21,15,15,0,0,0,1,6.58,58.74,58.74,0,0,0,2.36,5.54c.81,1.76,1.71,3.54,2.32,5.14a10.79,10.79,0,0,1,.72,5.1,7.82,7.82,0,0,1-2.54,4.8,7.32,7.32,0,0,0,4.51-4.23,11.34,11.34,0,0,0,.49-6.51,40.15,40.15,0,0,0-1.84-5.85c-.7-1.85-1.47-3.64-2.06-5.36a13.41,13.41,0,0,1-.95-4.93,12.35,12.35,0,0,1,1.28-4.86,23,23,0,0,1,2.83-4.71,11,11,0,0,1,4.39-3.5A9,9,0,0,0,212.58,188.44Z" style="fill: rgb(255, 255, 255); transform-origin: 212.135px 206.414px;" id="elc73yt60ezat" class="animable"></path><path d="M241.06,202.71a11.73,11.73,0,0,0-5.05,2,14.75,14.75,0,0,0-3.62,3.83,15,15,0,0,0-1.29,2.29,12.63,12.63,0,0,0-.75,2.59,8.91,8.91,0,0,0,.69,5.27,8.1,8.1,0,0,0,3.36,3.62,11,11,0,0,1-1.4-4.21,8.32,8.32,0,0,1,.54-3.87,14,14,0,0,1,.86-1.74,18,18,0,0,1,1.19-1.61l.66-.78.71-.71.35-.36.37-.31c.26-.19.49-.42.75-.59a9.72,9.72,0,0,1,3.44-1.53,28.34,28.34,0,0,0,4.66-1.36,12.49,12.49,0,0,0,1.2-.64c.38-.26.75-.52,1.1-.8l.93-.94a9.5,9.5,0,0,0,.78-1,7.38,7.38,0,0,0,.64-1.07c.19-.37.38-.73.55-1.1a19.82,19.82,0,0,0,.74-2.3c-2.27,2.25-4.52,4.31-7,4.76C244.19,202.42,242.75,202.44,241.06,202.71Z" style="fill: rgb(255, 255, 255); transform-origin: 241.344px 209.85px;" id="el3h4jywparbl" class="animable"></path><path d="M282,295.53a6,6,0,1,0,6,6A6,6,0,0,0,282,295.53Z" style="fill: rgb(255, 255, 255); transform-origin: 282px 301.53px;" id="elvidthwa1ajk" class="animable"></path><circle cx="302.47" cy="293.59" r="1.51" style="fill: rgb(255, 255, 255); transform-origin: 302.47px 293.59px;" id="elxwtqq1xr1cd" class="animable"></circle><path d="M302.68,273.77a2.37,2.37,0,1,0-2.37,2.37A2.38,2.38,0,0,0,302.68,273.77Z" style="fill: rgb(255, 255, 255); transform-origin: 300.31px 273.77px;" id="eldppwlctgb9l" class="animable"></path><path d="M299.67,250.49a4.1,4.1,0,1,0-4.1,4.09A4.11,4.11,0,0,0,299.67,250.49Z" style="fill: rgb(255, 255, 255); transform-origin: 295.57px 250.48px;" id="eldkxdar9zhvl" class="animable"></path><path d="M287.84,235.62a2.4,2.4,0,1,0,2.41,2.4A2.4,2.4,0,0,0,287.84,235.62Z" style="fill: rgb(255, 255, 255); transform-origin: 287.85px 238.02px;" id="eln6lqw6no2" class="animable"></path><path d="M268,214.49a2.81,2.81,0,1,0,2.81,2.81A2.81,2.81,0,0,0,268,214.49Z" style="fill: rgb(255, 255, 255); transform-origin: 268px 217.3px;" id="elxygz5v7o31o" class="animable"></path><path d="M253.33,184.32a1.94,1.94,0,1,0,1.94,1.94A1.94,1.94,0,0,0,253.33,184.32Z" style="fill: rgb(255, 255, 255); transform-origin: 253.33px 186.26px;" id="eljuow1xty00e" class="animable"></path><path d="M271.86,199.84a1.94,1.94,0,1,0-1.94-1.94A1.94,1.94,0,0,0,271.86,199.84Z" style="fill: rgb(255, 255, 255); transform-origin: 271.86px 197.9px;" id="ele23k7c9v50q" class="animable"></path><path d="M274,146.39a1.94,1.94,0,1,0-1.94-1.94A1.94,1.94,0,0,0,274,146.39Z" style="fill: rgb(255, 255, 255); transform-origin: 274px 144.45px;" id="el1e22cmsau3d" class="animable"></path><circle cx="267.12" cy="156.52" r="1.51" style="fill: rgb(255, 255, 255); transform-origin: 267.12px 156.52px;" id="el46lomsm10v9" class="animable"></circle><path d="M245.78,165.14a2.8,2.8,0,1,0-2.8,2.8A2.8,2.8,0,0,0,245.78,165.14Z" style="fill: rgb(255, 255, 255); transform-origin: 242.98px 165.14px;" id="ela610azvzgge" class="animable"></path><path d="M199.23,205.87a2.16,2.16,0,1,0,2.16-2.15A2.16,2.16,0,0,0,199.23,205.87Z" style="fill: rgb(255, 255, 255); transform-origin: 201.39px 205.88px;" id="el2p5ko3d7atn" class="animable"></path><path d="M173.58,189.92a1.94,1.94,0,1,0,1.94,1.94A1.94,1.94,0,0,0,173.58,189.92Z" style="fill: rgb(255, 255, 255); transform-origin: 173.58px 191.86px;" id="el09t3lvtm3dsr" class="animable"></path><path d="M194.49,177.85a2.59,2.59,0,1,0-2.59-2.58A2.58,2.58,0,0,0,194.49,177.85Z" style="fill: rgb(255, 255, 255); transform-origin: 194.49px 175.26px;" id="el43sffvbmsxb" class="animable"></path><path d="M186.73,221.82a1.73,1.73,0,1,0,1.72,1.73A1.72,1.72,0,0,0,186.73,221.82Z" style="fill: rgb(255, 255, 255); transform-origin: 186.72px 223.55px;" id="elq7e9bhcbg1f" class="animable"></path><path d="M266.91,303.29a1.73,1.73,0,1,0,1.72,1.73A1.73,1.73,0,0,0,266.91,303.29Z" style="fill: rgb(255, 255, 255); transform-origin: 266.9px 305.02px;" id="elcd77jsldvsb" class="animable"></path><path d="M304.19,211.91a2.81,2.81,0,1,0-2.8-2.8A2.81,2.81,0,0,0,304.19,211.91Z" style="fill: rgb(255, 255, 255); transform-origin: 304.2px 209.1px;" id="eld1ktqgc2lnm" class="animable"></path><path d="M277.9,164.92a1.51,1.51,0,1,0-1.51-1.51A1.51,1.51,0,0,0,277.9,164.92Z" style="fill: rgb(255, 255, 255); transform-origin: 277.9px 163.41px;" id="elizblqq6y1i" class="animable"></path><path d="M241.91,122.25a1.73,1.73,0,1,0-1.73-1.73A1.72,1.72,0,0,0,241.91,122.25Z" style="fill: rgb(255, 255, 255); transform-origin: 241.91px 120.52px;" id="elj262nyhtre" class="animable"></path><path d="M225.53,157.59a3.45,3.45,0,1,0-3.45-3.44A3.44,3.44,0,0,0,225.53,157.59Z" style="fill: rgb(255, 255, 255); transform-origin: 225.53px 154.14px;" id="elih3cvxzssrh" class="animable"></path><path d="M182.2,260.62a1.51,1.51,0,1,0,1.51,1.51A1.51,1.51,0,0,0,182.2,260.62Z" style="fill: rgb(255, 255, 255); transform-origin: 182.2px 262.13px;" id="elprdtiuv3dy" class="animable"></path><path d="M169.51,398.41s3.31-7.89,3.82-10.18,0-15.27,0-15.27S170,389,169,391s-5,8-5,8Z" style="fill: rgb(38, 50, 56); transform-origin: 168.778px 385.98px;" id="elusw2vue32j" class="animable"></path><polygon points="286.57 395.87 283.21 372.56 291.19 399 286.57 395.87" style="fill: rgb(38, 50, 56); transform-origin: 287.2px 385.78px;" id="elmk1vrc9ayn" class="animable"></polygon><path d="M218.05,355.72a.53.53,0,0,1-.24-.06s-2.51-1.35-6.51-3.11-7.62-3.55-7.66-3.57a.5.5,0,0,1-.22-.67.49.49,0,0,1,.67-.22s3.6,1.79,7.61,3.55,6.56,3.12,6.59,3.14a.5.5,0,0,1-.24.94Z" style="fill: rgb(38, 50, 56); transform-origin: 210.96px 351.877px;" id="elohaayueauxn" class="animable"></path><path d="M241.36,354.13a.5.5,0,0,1-.16-1c.12,0,11.5-3.95,19.5-8.95a.5.5,0,0,1,.69.15.49.49,0,0,1-.16.69c-8.09,5.06-19.59,9-19.7,9.06A.51.51,0,0,1,241.36,354.13Z" style="fill: rgb(38, 50, 56); transform-origin: 251.123px 349.118px;" id="elkiim1akrbvs" class="animable"></path><path d="M203.89,409.48a.45.45,0,0,1-.16,0,.49.49,0,0,1-.32-.62c0-.12,3.61-11.18,10.6-18.16a.5.5,0,0,1,.71,0,.5.5,0,0,1,0,.7c-6.82,6.82-10.32,17.65-10.36,17.76A.5.5,0,0,1,203.89,409.48Z" style="fill: rgb(38, 50, 56); transform-origin: 209.124px 400.02px;" id="eltr1j5os139" class="animable"></path><path d="M278.53,268s-1.61-4.55-4-3.75-7.22,7-7.22,7,3.74.53,2.67,2.14a3.56,3.56,0,0,1-3.21,1.34s1.88,2.67,4.55,1.6,4.28-3.21,3.48-4.81l-.8-1.61a2.44,2.44,0,0,1,2.94.8S280.4,270.71,278.53,268Z" style="fill: rgb(38, 50, 56); transform-origin: 272.927px 270.369px;" id="elhu36em8a0x8" class="animable"></path></g><g id="freepik--Flames--inject-558" class="animable animator-active" style="transform-origin: 253.064px 428.765px;"><path d="M391.31,459.12c.87-1.84,1.94-4.63,1.59-6.56-.57-3.13-3.42-7.6-8.55-12.08s-6.27-19.23-6.27-19.23-3.42,4.47,0,13.42,8,10.73,6.27,17.44-9.69,1.79-10.83-4.47-13.67-8.5-12.53-7.16c2.52,3,10,11.65-.56,11-16.48-.95-8.43-16.19-13.11-24-4.56-7.6-15.39-6.71-22.79-13.86s4.56-15.21,4.56-15.21-9.69.45-14.25,6.26-2.85,12.08,6.27,16.1,9.12,12.08,6.84,18.34-12,6.26-16,1.79,4.56-13.42,4.56-13.42-9.68,3.58-13.1,8.05,1.14,7.16,1.71,12.53c.36,3.38-6.73,10.08-11.14,6.75-2.62-2-.51-6.6-.26-9,.57-5.37-8-9.39-8-9.39s0,8.05-5.13,11.63-11.4-3.58-8.55-10.74,11.4-12.52,8-20.13S263,407.38,263,407.38s6.26,7.61,6.26,13.42-4,9.4-8.54,7.61.57-13.87.57-13.87-9.12,3.13-11.4,8.95,2.28,10.73,5.13,13c3.22,2.52,2,9.38.82,12.33-1.74,4.35-11,8.23-14.42,2.88-1.19-1.87.5-5.16.5-7.16,0-5.82-6.84-8.95-6.84-8.95s2.85,6.71-3.42,9.4-18.23-6.27-12.53-14.32,6.84-13-.57-19.68-11.4-.45-11.4-.45c4.56-1.34,6.84,6.71,2.28,12.53s-8.54,6.71-8,12.52,4.56,8.5,3.42,16.55-10.26,6.71-10.83,4.48,2.85-6.27,1.71-12.08-8.55-9.84-8.55-9.84a40.57,40.57,0,0,1-1.7,9.39c-1,3.7-3.6,5.13-8.39,4.63-6.69-.69-10.22-7.29-8-11.9.6-1.27,3.13-6.15,5-6.59,0,0-9.69,2.24-11.39,7.15s-1.14,10.29-4.56,14.76c-5.23,6.84-16-1.38-16-6.78,0-.87,3-7.43,2.88-7.53s8,8.05,8,8.05a32.57,32.57,0,0,0-1.14-11.18c-1.71-6.26-10.25-9.39-15.38-13-4.66-3.26,1.42-8.82,3.48-11.76-4.92,1.12-11.5,5.15-13.17,9.07-2.28,5.37,1.71,8.5,5.13,14.32,1.83,3.1,1.32,8.22.23,11.41-1.21,3.55-5.49,3.76-8.87,1.75a9,9,0,0,1-4.41-8.25c.06-1.48-.29-6.44,1.09-7.6a21.38,21.38,0,0,0-6.27,19.68c.74,4.09.33,6.88-.56,8.8Z" style="fill: #0DCC24; transform-origin: 253.064px 428.765px;" id="eltm3082t27df" class="animable"></path></g><defs>     <filter id="active" height="200%">         <feMorphology in="SourceAlpha" result="DILATED" operator="dilate" radius="2"></feMorphology>                <feFlood flood-color="#32DFEC" flood-opacity="1" result="PINK"></feFlood>        <feComposite in="PINK" in2="DILATED" operator="in" result="OUTLINE"></feComposite>        <feMerge>            <feMergeNode in="OUTLINE"></feMergeNode>            <feMergeNode in="SourceGraphic"></feMergeNode>        </feMerge>    </filter>    <filter id="hover" height="200%">        <feMorphology in="SourceAlpha" result="DILATED" operator="dilate" radius="2"></feMorphology>                <feFlood flood-color="#ff0000" flood-opacity="0.5" result="PINK"></feFlood>        <feComposite in="PINK" in2="DILATED" operator="in" result="OUTLINE"></feComposite>        <feMerge>            <feMergeNode in="OUTLINE"></feMergeNode>            <feMergeNode in="SourceGraphic"></feMergeNode>        </feMerge>            <feColorMatrix type="matrix" values="0   0   0   0   0                0   1   0   0   0                0   0   0   0   0                0   0   0   1   0 "></feColorMatrix>    </filter></defs></svg>